# This file uses centimeters as units for non-parametric coordinates.

mtllib Table.mtl
g default
v -9.488641 -19.808826 27.664878
v 12.511359 -19.808826 27.664878
v -9.488641 -2.139457 25.682411
v 12.511359 -2.139457 25.682411
v -9.488641 -7.881620 -25.496467
v 12.511359 -7.881620 -25.496467
v -9.488641 -25.550989 -23.514001
v 12.511359 -25.550989 -23.514001
v -9.488640 -2.112293 -25.942535
v 12.511359 -2.112293 -25.942535
v -9.488641 2.085645 25.684635
v 12.511359 2.085645 25.684635
v 12.511359 2.112809 -25.940312
v -9.488640 2.112809 -25.940312
vt 0.375000 0.000000
vt 0.625000 0.000000
vt 0.375000 0.250000
vt 0.625000 0.250000
vt 0.375000 0.500000
vt 0.625000 0.500000
vt 0.375000 0.750000
vt 0.625000 0.750000
vt 0.375000 1.000000
vt 0.625000 1.000000
vt 0.875000 0.000000
vt 0.875000 0.250000
vt 0.125000 0.000000
vt 0.125000 0.250000
vt 0.000000 0.000000
vt 0.648905 0.000000
vt 0.648905 1.000000
vt 0.000000 1.000000
vt 0.000000 0.000000
vt 1.000000 0.000000
vt 1.000000 1.000000
vt 0.000000 1.000000
vt 0.000000 0.000000
vt 1.000000 0.000000
vt 1.000000 1.000000
vt 0.000000 0.000000
vt 1.000000 0.000000
vt 1.000000 1.000000
vt 0.000000 0.000000
vt 0.648905 0.000000
vt 0.648905 1.000000
vt 0.000000 1.000000
vt 0.000000 0.000000
vt 1.000000 0.000000
vt 1.000000 1.000000
vt 0.000000 1.000000
vn 0.000000 0.111498 0.993765
vn 0.000000 0.111498 0.993765
vn 0.000000 0.111498 0.993765
vn 0.000000 0.111498 0.993765
vn 0.000000 0.993765 -0.111498
vn 0.000000 0.993765 -0.111498
vn 0.000000 0.993765 -0.111498
vn 0.000000 0.993765 -0.111498
vn 0.000000 -0.111498 -0.993765
vn 0.000000 -0.111498 -0.993765
vn 0.000000 -0.111498 -0.993765
vn 0.000000 -0.111498 -0.993765
vn 0.000000 -0.993765 0.111498
vn 0.000000 -0.993765 0.111498
vn 0.000000 -0.993765 0.111498
vn 0.000000 -0.993765 0.111498
vn 1.000000 0.000000 0.000000
vn 1.000000 0.000000 0.000000
vn 1.000000 0.000000 0.000000
vn 1.000000 0.000000 0.000000
vn -1.000000 0.000000 0.000000
vn -1.000000 0.000000 0.000000
vn -1.000000 0.000000 0.000000
vn -1.000000 0.000000 0.000000
vn 0.000000 0.077087 0.997024
vn 0.000000 0.077087 0.997024
vn 0.000000 0.077087 0.997024
vn 0.000000 0.077087 0.997024
vn 0.197455 -0.980312 -0.000516
vn 1.000000 0.000000 0.000000
vn 0.301904 -0.953338 -0.000502
vn 1.000000 -0.000000 0.000000
vn 1.000000 -0.000000 0.000000
vn 1.000000 -0.000000 0.000000
vn 0.000000 -0.000526 1.000000
vn 0.000000 -0.000526 1.000000
vn 0.000000 -0.000526 1.000000
vn 0.000000 -0.000526 1.000000
vn 1.000000 0.000000 -0.000000
vn 1.000000 0.000000 -0.000000
vn 0.000000 0.000526 -1.000000
vn 0.000000 0.000526 -1.000000
vn 0.000000 0.000526 -1.000000
vn 0.000000 0.000526 -1.000000
vn -1.000000 0.000000 -0.000000
vn -1.000000 0.000000 -0.000000
vn -1.000000 0.000000 -0.000000
vn -1.000000 0.000000 -0.000000
vn 0.000000 -1.000000 -0.000526
vn 0.000000 -1.000000 -0.000526
s off
g polySurface1
usemtl initialShadingGroup
f 1/1/1 2/2/2 4/4/3 3/3/4
f 3/3/5 4/4/6 6/6/7 5/5/8
f 5/5/9 6/6/10 8/8/11 7/7/12
f 7/7/13 8/8/14 2/10/15 1/9/16
f 2/2/17 8/11/18 6/12/19 4/4/20
f 7/13/21 1/1/22 3/3/23 5/14/24
f 5/19/25 6/20/26 10/21/27 9/22/28
s 1
f 4/23/29 6/24/30 10/25/31
s off
f 3/26/32 5/27/33 9/28/34
f 3/15/35 4/16/36 12/30/37 11/29/38
f 4/16/29 10/17/31 13/31/39 12/30/40
f 10/17/41 9/18/42 14/32/43 13/31/44
f 9/18/45 3/15/46 11/29/47 14/32/48
s 1
f 3/33/49 9/34/50 10/35/31 4/36/29
