# This file uses centimeters as units for non-parametric coordinates.

mtllib Table.mtl
g default
v -0.840297 0.000000 1.961726
v 0.837933 0.000000 1.961726
v -0.840297 0.412717 1.961726
v 0.837933 0.412717 1.961726
v -0.840297 0.412717 -1.970702
v 0.837933 0.412717 -1.970702
v -0.840297 0.000000 -1.970702
v 0.837933 0.000000 -1.970702
vt 0.966814 0.550813
vt 0.966814 0.994048
vt 0.804060 0.994048
vt 0.804060 0.550813
vt 0.225924 0.513279
vt 0.048187 0.513280
vt 0.048187 0.991456
vt 0.225924 0.991456
vt 0.269525 0.005610
vt 0.269525 0.987495
vt 0.761597 0.987495
vt 0.761597 0.005610
vt 0.782543 0.004604
vt 0.782543 0.536570
vt 0.980275 0.536570
vt 0.980275 0.004604
vt 0.046868 0.011214
vt 0.046868 0.501372
vt 0.228590 0.501372
vt 0.228590 0.011214
vn 0.000000 0.000000 1.000000
vn 0.000000 0.000000 1.000000
vn 0.000000 0.000000 1.000000
vn 0.000000 0.000000 1.000000
vn 0.000000 0.000000 1.000000
vn 0.000000 0.000000 1.000000
vn 0.000000 0.000000 1.000000
vn 0.000000 0.000000 1.000000
vn 0.000000 1.000000 0.000000
vn 0.000000 1.000000 0.000000
vn 0.000000 1.000000 0.000000
vn 0.000000 1.000000 0.000000
vn -1.000000 0.000000 0.000000
vn -1.000000 0.000000 0.000000
vn -1.000000 0.000000 0.000000
vn -1.000000 0.000000 0.000000
vn 1.000000 0.000000 0.000000
vn 1.000000 0.000000 0.000000
vn 1.000000 0.000000 0.000000
vn 1.000000 0.000000 0.000000
s off
g pCube2
usemtl phong1SG
f 1/1/1 2/2/2 4/3/3 3/4/4
f 5/5/5 7/6/6 8/7/7 6/8/8
f 7/9/9 1/10/10 2/11/11 8/12/12
f 2/13/13 4/14/14 6/15/15 8/16/16
f 7/17/17 5/18/18 3/19/19 1/20/20
